<?xml version="1.0" encoding="UTF-8"?>
<!-- Generated by Pixelmator Pro 3.5.8 -->
<svg width="1010" height="216" viewBox="0 0 1010 216" xmlns="http://www.w3.org/2000/svg">
    <g id="Group">
        <path id="Heart" fill="#e11d48" fill-rule="evenodd" stroke="none" d="M 977.368286 118.916946 C 967.503113 123.613403 956.039429 126.819992 942.976868 128.536377 C 929.918335 130.256561 915.686584 130.613098 900.282104 129.60643 C 899.336487 129.544937 898.397827 129.401978 897.476807 129.179413 C 895.754456 128.903763 894.270935 127.814865 893.491699 126.254356 C 893.003296 125.44239 892.58551 124.589699 892.243469 123.706055 C 886.667297 109.312035 882.741394 95.627686 880.465759 82.653107 C 878.190063 69.67836 877.812866 57.780548 879.333618 46.959259 C 880.855469 36.139313 884.702759 26.522995 890.516052 18.602997 C 895.335571 12.036865 900.801636 7.469803 907.273071 4.410538 C 913.444153 1.407822 920.305237 0.110703 927.144897 0.654114 C 933.955078 1.203888 940.466064 3.686188 945.912842 7.809265 C 951.365601 11.81163 955.295837 16.837067 957.36377 22.652786 C 959.492676 28.429306 960.165894 34.641953 959.324036 40.741974 C 964.891235 38.110367 971.02002 36.890411 977.169067 37.189911 C 983.337219 37.419525 989.311768 39.664215 994.762451 43.665009 C 1000.329041 47.625183 1004.64917 53.093033 1007.214722 59.425583 C 1009.783081 65.787125 1010.60144 72.721191 1009.584778 79.507584 C 1008.606445 86.598816 1005.889648 93.183838 1001.070129 99.749969 C 995.256836 107.669968 987.235901 114.222786 977.368286 118.916946 Z"/>
        <text id="Daddy-Pack" xml:space="preserve"><tspan x="-14" y="167" font-family="Outfit" font-size="197" font-weight="800" fill="#e11d48" letter-spacing="-13.79" xml:space="preserve">Daddy </tspan><tspan font-family="Outfit" font-size="197" font-weight="800" fill="#000000" letter-spacing="-13.79" xml:space="preserve">Pack</tspan></text>
    </g>
</svg>
